<?xml version="1.0" encoding="UTF-8" standalone="no"?>
<!-- Created with Inkscape (http://www.inkscape.org/) -->

<svg
   xmlns:dc="http://purl.org/dc/elements/1.1/"
   xmlns:cc="http://creativecommons.org/ns#"
   xmlns:rdf="http://www.w3.org/1999/02/22-rdf-syntax-ns#"
   xmlns:svg="http://www.w3.org/2000/svg"
   xmlns="http://www.w3.org/2000/svg"
   xmlns:sodipodi="http://sodipodi.sourceforge.net/DTD/sodipodi-0.dtd"
   xmlns:inkscape="http://www.inkscape.org/namespaces/inkscape"
   width="210mm"
   height="297mm"
   viewBox="0 0 744.09448819 1052.3622047"
   id="svg2"
   version="1.1"
   inkscape:version="0.91 r13725"
   sodipodi:docname="boomboom.svg">
  <defs
     id="defs4" />
  <sodipodi:namedview
     id="base"
     pagecolor="#ffffff"
     bordercolor="#666666"
     borderopacity="1.0"
     inkscape:pageopacity="0.0"
     inkscape:pageshadow="2"
     inkscape:zoom="1.979899"
     inkscape:cx="389.55885"
     inkscape:cy="671.55804"
     inkscape:document-units="px"
     inkscape:current-layer="layer1"
     showgrid="false"
     inkscape:window-width="1920"
     inkscape:window-height="1058"
     inkscape:window-x="-8"
     inkscape:window-y="-8"
     inkscape:window-maximized="1" />
  <metadata
     id="metadata7">
    <rdf:RDF>
      <cc:Work
         rdf:about="">
        <dc:format>image/svg+xml</dc:format>
        <dc:type
           rdf:resource="http://purl.org/dc/dcmitype/StillImage" />
        <dc:title></dc:title>
      </cc:Work>
    </rdf:RDF>
  </metadata>
  <g
     inkscape:label="Layer 1"
     inkscape:groupmode="layer"
     id="layer1">
    <rect
       style="opacity:1;fill:none;fill-opacity:1;stroke:none;stroke-width:1;stroke-miterlimit:4;stroke-dasharray:none"
       id="rect4138"
       width="400"
       height="100"
       x="149.50258"
       y="444.25522"
       inkscape:export-xdpi="89.949997"
       inkscape:export-ydpi="89.949997" />
    <path
       style="opacity:1;fill:#ffffff;fill-opacity:1;stroke:none;stroke-width:1;stroke-miterlimit:4;stroke-dasharray:none"
       d="m 200.51438,459.90747 a 21.718279,19.950512 0 0 0 -16.77539,7.29882 16.162441,18.182745 0 0 0 -2.41602,-0.22656 16.162441,18.182745 0 0 0 -16.16211,18.18164 16.162441,18.182745 0 0 0 15.57813,18.15039 13.637059,11.869292 0 0 0 -2.95117,7.35547 13.637059,11.869292 0 0 0 13.63672,11.86914 13.637059,11.869292 0 0 0 11.87304,-6.04492 13.131983,10.354064 0 0 0 9.84375,3.51953 13.131983,10.354064 0 0 0 13.13281,-10.35351 13.131983,10.354064 0 0 0 -0.44726,-2.65821 18.435284,13.131983 0 0 0 14.08398,-12.74609 18.435284,13.131983 0 0 0 -17.74804,-13.10742 21.718279,19.950512 0 0 0 0.0703,-1.28711 21.718279,19.950512 0 0 0 -21.71875,-19.95117 z"
       id="path4146"
       inkscape:connector-curvature="0" />
    <path
       style="opacity:1;fill:#ffffff;fill-opacity:1;stroke:none;stroke-width:1;stroke-miterlimit:4;stroke-dasharray:none"
       d="m 295.97492,455.86722 a 21.718279,16.667517 0 0 0 -21.71875,16.66797 21.718279,16.667517 0 0 0 3.41797,8.97265 17.930208,15.909903 0 0 0 -8.46875,13.50196 17.930208,15.909903 0 0 0 13.02734,15.28906 22.98097,18.687822 0 0 0 22.58008,15.26953 22.98097,18.687822 0 0 0 22.98242,-18.68945 22.98097,18.687822 0 0 0 -0.37109,-3.30274 22.728432,16.667517 0 0 0 12.49218,-14.8789 22.728432,16.667517 0 0 0 -22.24609,-16.65039 21.718279,16.667517 0 0 0 -21.69531,-16.17969 z"
       id="path4159"
       inkscape:connector-curvature="0" />
    <path
       style="opacity:1;fill:#ffffff;fill-opacity:1;stroke:none;stroke-width:1;stroke-miterlimit:4;stroke-dasharray:none"
       d="m 402.79762,459.4035 a 11.364216,9.0913725 0 0 0 -11.36328,9.08984 11.364216,9.0913725 0 0 0 1.65039,4.70117 19.445436,17.67767 0 0 0 -11.24804,16.00781 19.445436,17.67767 0 0 0 11.13086,15.95508 21.465742,14.394673 0 0 0 20.94336,11.31836 21.465742,14.394673 0 0 0 21.46484,-14.39453 21.465742,14.394673 0 0 0 -8.32422,-11.35937 14.89975,14.394673 0 0 0 2.76758,-8.3379 14.89975,14.394673 0 0 0 -14.89844,-14.39453 14.89975,14.394673 0 0 0 -0.7793,0.0254 11.364216,9.0913725 0 0 0 -11.34375,-8.61132 z m -29.54687,7.57617 a 7.0710678,6.3134532 0 0 0 -7.07031,6.3125 7.0710678,6.3134532 0 0 0 7.07031,6.31445 7.0710678,6.3134532 0 0 0 7.07227,-6.31445 7.0710678,6.3134532 0 0 0 -7.07227,-6.3125 z m 12.88086,40.91015 a 6.3134532,4.0406103 0 0 0 -6.31445,4.04102 6.3134532,4.0406103 0 0 0 6.31445,4.04102 6.3134532,4.0406103 0 0 0 6.3125,-4.04102 6.3134532,4.0406103 0 0 0 -6.3125,-4.04102 z"
       id="path4168"
       inkscape:connector-curvature="0" />
    <path
       style="opacity:1;fill:#ffffff;fill-opacity:1;stroke:none;stroke-width:1;stroke-miterlimit:4;stroke-dasharray:none"
       d="m 509.87383,453.84613 a 17.425131,10.101525 0 0 0 -17.42383,10.10156 17.425131,10.101525 0 0 0 0.17187,1.32813 15.657365,14.89975 0 0 0 -7.24414,12.5625 15.657365,14.89975 0 0 0 0.0274,0.71875 25.253813,23.486046 0 0 0 -15.17969,21.5039 25.253813,23.486046 0 0 0 25.2539,23.48633 25.253813,23.486046 0 0 0 25.0879,-20.89453 16.920055,14.647212 0 0 0 14.30859,-14.46094 16.920055,14.647212 0 0 0 -16.91992,-14.64648 16.920055,14.647212 0 0 0 -1.90235,0.11133 15.657365,14.89975 0 0 0 -0.0879,-0.25 17.425131,10.101525 0 0 0 11.33399,-9.45899 17.425131,10.101525 0 0 0 -17.42578,-10.10156 z"
       id="path4181"
       inkscape:connector-curvature="0" />
    <text
       xml:space="preserve"
       style="font-style:normal;font-weight:normal;font-size:27.49956703px;line-height:125%;font-family:Sans;letter-spacing:0px;word-spacing:0px;fill:#000000;fill-opacity:1;stroke:none;stroke-width:1px;stroke-linecap:butt;stroke-linejoin:miter;stroke-opacity:1"
       x="165.51163"
       y="501.87646"
       id="text4190"
       sodipodi:linespacing="125%"><tspan
         sodipodi:role="line"
         id="tspan4192"
         x="165.51163"
         y="501.87646">boom</tspan></text>
    <text
       sodipodi:linespacing="125%"
       id="text4194"
       y="585.45392"
       x="6.9365258"
       style="font-style:normal;font-weight:normal;font-size:27.49956703px;line-height:125%;font-family:Sans;letter-spacing:0px;word-spacing:0px;fill:#000000;fill-opacity:1;stroke:none;stroke-width:1px;stroke-linecap:butt;stroke-linejoin:miter;stroke-opacity:1"
       xml:space="preserve"
       transform="matrix(0.88923765,-0.45744553,0.45744553,0.88923765,0,0)"><tspan
         y="585.45392"
         x="6.9365258"
         id="tspan4196"
         sodipodi:role="line">boom</tspan></text>
    <text
       transform="matrix(0.88828398,0.45929465,-0.45929465,0.88828398,0,0)"
       xml:space="preserve"
       style="font-style:normal;font-weight:normal;font-size:27.49956703px;line-height:125%;font-family:Sans;letter-spacing:0px;word-spacing:0px;fill:#000000;fill-opacity:1;stroke:none;stroke-width:1px;stroke-linecap:butt;stroke-linejoin:miter;stroke-opacity:1"
       x="547.66193"
       y="256.64777"
       id="text4198"
       sodipodi:linespacing="125%"><tspan
         sodipodi:role="line"
         id="tspan4200"
         x="547.66193"
         y="256.64777">boom</tspan></text>
    <text
       sodipodi:linespacing="125%"
       id="text4202"
       y="656.47272"
       x="232.30962"
       style="font-style:normal;font-weight:normal;font-size:27.49956703px;line-height:125%;font-family:Sans;letter-spacing:0px;word-spacing:0px;fill:#000000;fill-opacity:1;stroke:none;stroke-width:1px;stroke-linecap:butt;stroke-linejoin:miter;stroke-opacity:1"
       xml:space="preserve"
       transform="matrix(0.92340895,-0.38381755,0.38381755,0.92340895,0,0)"><tspan
         y="656.47272"
         x="232.30962"
         id="tspan4204"
         sodipodi:role="line">boom</tspan></text>
  </g>
</svg>
